<?xml version="1.0" encoding="iso-8859-1"?>
<!-- Generator: Adobe Illustrator 19.0.0, SVG Export Plug-In . SVG Version: 6.00 Build 0)  -->
<svg version="1.1" id="Layer_1" xmlns="http://www.w3.org/2000/svg" xmlns:xlink="http://www.w3.org/1999/xlink" x="0px" y="0px"
	 viewBox="0 0 512 512" style="enable-background:new 0 0 512 512;" xml:space="preserve">
<path style="fill:#0E7563;" d="M504.026,192.374C475.737,81.771,375.42,0,256,0C114.616,0,0,114.616,0,256
	c0,119.42,81.771,219.737,192.374,248.026L504.026,192.374z"/>
<path style="fill:#1A534A;" d="M512,256c0-21.965-2.77-43.283-7.974-63.626l-69.939-69.939L77.913,389.565l114.461,114.461
	C212.717,509.23,234.035,512,256,512C397.384,512,512,397.384,512,256z"/>
<polygon style="fill:#7DDCD4;" points="256,389.565 434.087,389.565 434.087,367.304 233.739,345.043 "/>
<polygon style="fill:#B1EAE5;" points="77.913,367.304 77.913,389.565 256,389.565 256,345.043 "/>
<polygon style="fill:#40D2BE;" points="256,367.304 434.087,367.304 434.087,345.043 233.739,322.783 "/>
<g>
	<polygon style="fill:#7DDCD4;" points="77.913,345.043 77.913,367.304 256,367.304 256,322.783 	"/>
	<polygon style="fill:#7DDCD4;" points="256,345.043 434.087,345.043 434.087,322.783 233.739,300.522 	"/>
</g>
<polygon style="fill:#B1EAE5;" points="77.913,322.783 77.913,345.043 256,345.043 256,300.522 "/>
<polygon style="fill:#02C8A7;" points="256,122.435 233.739,222.609 256,322.783 434.087,322.783 434.087,122.435 "/>
<rect x="77.913" y="122.435" style="fill:#40D2BE;" width="178.087" height="200.348"/>
<path style="fill:#7DDCD4;" d="M378.435,144.696H256l-22.261,77.913L256,300.522h122.435c0-18.441,14.949-33.391,33.391-33.391
	v-89.043C393.385,178.087,378.435,163.138,378.435,144.696z"/>
<path style="fill:#B1EAE5;" d="M133.565,144.696c0,18.441-14.949,33.391-33.391,33.391v89.043c18.442,0,33.391,14.95,33.391,33.391
	H256V144.696H133.565z"/>
<path style="fill:#02C8A7;" d="M256,155.826c49.178,0,89.043,29.9,89.043,66.783S305.178,289.391,256,289.391V155.826z"/>
<path style="fill:#40D2BE;" d="M166.957,222.609c0,36.883,39.866,66.783,89.043,66.783V155.826
	C206.822,155.826,166.957,185.726,166.957,222.609z"/>
<polygon style="fill:#FDE59A;" points="233.739,322.783 256,400.696 322.783,400.696 322.783,322.783 "/>
<g>
	<polygon style="fill:#FEF2CC;" points="322.783,111.304 256,111.304 233.739,322.783 322.783,322.783 	"/>
	<rect x="189.217" y="322.783" style="fill:#FEF2CC;" width="66.783" height="77.913"/>
</g>
<rect x="189.217" y="111.304" style="fill:#FFFFFF;" width="66.783" height="211.478"/>
<g>
</g>
<g>
</g>
<g>
</g>
<g>
</g>
<g>
</g>
<g>
</g>
<g>
</g>
<g>
</g>
<g>
</g>
<g>
</g>
<g>
</g>
<g>
</g>
<g>
</g>
<g>
</g>
<g>
</g>
</svg>
