<?xml version="1.0" encoding="iso-8859-1"?>
<!-- Generator: Adobe Illustrator 19.0.0, SVG Export Plug-In . SVG Version: 6.00 Build 0)  -->
<svg version="1.1" id="Layer_1" xmlns="http://www.w3.org/2000/svg" xmlns:xlink="http://www.w3.org/1999/xlink" x="0px" y="0px"
	 viewBox="0 0 512 512" style="enable-background:new 0 0 512 512;" xml:space="preserve">
<path style="fill:#32AACE;" d="M512,256c0,47.921-13.168,92.767-36.085,131.117c-8.083,13.535-17.376,26.259-27.747,38.017
	c-6.273,7.128-12.935,13.89-19.952,20.274c-6.984,6.362-14.334,12.336-21.995,17.887c-1.899,1.388-3.82,2.742-5.751,4.064
	c-6.44,4.419-13.102,8.538-19.952,12.358c-30.589,17.066-65.042,28.035-101.716,31.278c-7.517,0.655-15.122,0.999-22.806,0.999
	c-7.683,0-15.289-0.344-22.806-0.999c-49.709-4.397-95.343-22.995-132.805-51.707c-17.909-13.735-33.965-29.79-47.699-47.71
	C19.641,368.453,0,314.525,0,256C0,114.612,114.618,0.006,255.994,0.006c61.256,0,117.494,21.518,161.551,57.403
	c10.415,8.472,20.152,17.765,29.112,27.758c0.511,0.566,1.01,1.133,1.51,1.699c10.37,11.758,19.664,24.482,27.747,38.017
	C498.832,163.233,512,208.079,512,256z"/>
<path style="fill:#E9E4D8;" d="M475.915,57.409v329.708c-8.083,13.535-17.376,26.259-27.747,38.017
	c-6.273,7.128-12.935,13.89-19.952,20.274c-6.984,6.362-14.334,12.336-21.995,17.887H148.083V57.409H475.915z"/>
<path style="fill:#D3CEC2;" d="M448.168,85.167v339.968c-6.273,7.128-12.935,13.89-19.952,20.274
	c-6.984,6.362-14.334,12.336-21.995,17.887H148.083V85.167H448.168z"/>
<path style="fill:#E9E4D8;" d="M428.216,105.119v340.29c-6.984,6.362-14.334,12.336-21.995,17.887
	c-1.899,1.388-3.82,2.742-5.751,4.064c-6.44,4.419-13.102,8.538-19.952,12.358c-30.589,17.066-65.042,28.035-101.716,31.278h-45.612
	c-49.709-4.397-95.343-22.995-132.805-51.707V105.119H428.216z"/>
<path style="fill:#D3CEC2;" d="M400.469,132.866V467.36c-6.44,4.419-13.102,8.538-19.952,12.358
	c-30.589,17.066-65.042,28.035-101.716,31.278h-45.612c-49.709-4.397-95.343-22.995-132.805-51.707V132.866L400.469,132.866
	L400.469,132.866z"/>
<path style="fill:#E9E4D8;" d="M380.516,152.807v326.91c-30.589,17.066-65.042,28.035-101.716,31.278
	c-7.517,0.655-15.122,0.999-22.806,0.999c-7.683,0-15.289-0.344-22.806-0.999c-49.709-4.397-95.343-22.995-132.805-51.707
	c-17.909-13.735-33.965-29.79-47.699-47.71v-258.77H380.516z"/>
<g>
	<rect x="95.376" y="195.238" style="fill:#434751;" width="142.12" height="19.245"/>
	<rect x="95.376" y="259.636" style="fill:#434751;" width="240.572" height="19.245"/>
	<rect x="95.376" y="301.817" style="fill:#434751;" width="240.572" height="19.245"/>
	<rect x="95.376" y="344.009" style="fill:#434751;" width="240.572" height="19.245"/>
	<rect x="95.376" y="386.201" style="fill:#434751;" width="240.572" height="19.245"/>
</g>
<path style="fill:#42577F;" d="M343.095,451.437c-7.962,2.419-15.629,6.404-23.904,7.693c-1.602,0.25-3.396,0.502-5.013,0.207
	c-2.416-0.442-2.133-0.145-1.657-1.294c0.416-1.006,2.345-2.012,2.963-3.096c0.771-1.351,1.022-2.735,1.031-4.267
	c0.019-2.915-3.268-6.096-6.324-4.818c-6.958,2.909-13.579,6.759-20.73,9.178c-2.989,1.012-14.343,3.556-7.248-1.802
	c5.036-3.804,0.211-12.44-5.043-8.628c-6.73,4.882-13.52,9.773-21.767,11.375c0.541-0.868,1.111-1.882,1.352-2.184
	c1.792-2.247,3.939-4.285,5.404-6.776c3.265-5.556-5.368-10.59-8.628-5.043c-3.523,5.995-15.8,16.117-5.171,22.355
	c6.868,4.03,15.207,0.977,22.526-3.346c0.899,1.874,2.583,3.505,5.292,4.649c7.973,3.364,17.371-0.598,25.804-4.817
	c1.126,4.424,5.167,7.187,9.54,8.149c11.539,2.538,23.554-4.656,34.231-7.9C351.888,459.208,349.272,449.559,343.095,451.437z"/>
<path style="fill:#F0A037;" d="M450.725,138.797l9.065-31.816c0.974-3.418-1.007-6.976-4.425-7.95l-9.103-2.594
	c-3.418-0.974-6.976,1.007-7.95,4.425l-9.065,31.816L450.725,138.797z"/>
<path style="fill:#E0B76E;" d="M437.711,135.089l10.828-38.003l-2.277-0.648c-3.418-0.974-6.976,1.007-7.95,4.425l-9.065,31.816
	L437.711,135.089z"/>
<path style="fill:#E09132;" d="M432.222,280.709c-1.782-0.507-3.06-2.176-2.997-4.113c0.68-20.84,4.941-41.223,12.665-60.584
	l20.09-50.366c1.543-3.868,1.381-8.059-0.456-11.796c-1.836-3.738-5.055-6.425-9.061-7.567c-2.197-0.626-3.47-2.915-2.845-5.111
	c0.626-2.196,2.913-3.47,5.111-2.845c6.194,1.765,11.377,6.092,14.219,11.874c2.841,5.78,3.102,12.528,0.715,18.51l-20.09,50.366
	c-7.367,18.468-11.432,37.912-12.08,57.79c-0.074,2.283-1.985,4.074-4.268,3.998C432.877,280.854,432.541,280.8,432.222,280.709z"/>
<path style="fill:#A35895;" d="M459.867,135.387l-62.964,220.998c-3.463-0.041-7.144-0.194-11.01-0.48
	c-5.061-0.35-10.445-0.895-16.098-1.637c-3.684-0.473-7.481-1.03-11.376-1.668l64.856-227.64c0.974-3.418,4.533-5.398,7.95-4.425
	l24.218,6.899C458.859,128.411,460.841,131.971,459.867,135.387z"/>
<path style="fill:#8E4D85;" d="M435.999,121.898l-66.204,232.372c-3.684-0.473-7.481-1.03-11.376-1.668l64.856-227.64
	c0.974-3.418,4.533-5.398,7.95-4.425L435.999,121.898z"/>
<path style="fill:#E09132;" d="M368.009,388.371c2.197,0.626,3.47,2.915,2.845,5.111l-8.561,30.048
	c-0.626,2.196-2.913,3.47-5.111,2.845c-2.197-0.626-3.47-2.915-2.845-5.111l8.561-30.048
	C363.524,389.018,365.812,387.745,368.009,388.371z"/>
<path style="fill:#A35895;" d="M389.864,381.087l46.996-164.955c-9.01-2.215-17.755-4.095-26.097-5.638
	c-3.865-0.714-7.64-1.351-11.312-1.924L353.27,370.661c-3.859,13.547-2.392,27.986,3.973,40.394c0.866,1.7,1.83,3.36,2.882,4.975
	l1.509-0.739c0.269-0.13,0.533-0.27,0.798-0.417c0.382-0.192,0.757-0.395,1.128-0.607l0.228-0.133
	c0.476-0.252,0.943-0.532,1.409-0.812C377.148,406.131,386.005,394.635,389.864,381.087z"/>
<g>
	<path style="fill:#8E4D85;" d="M367.187,412.048c-0.345-0.752-0.674-1.499-0.98-2.266c-2.136-5.271-3.461-10.826-3.909-16.466
		c-0.513-6.502,0.117-13.117,1.943-19.529l46.523-163.293c-3.865-0.714-7.64-1.351-11.312-1.924L353.27,370.661
		c-3.859,13.547-2.392,27.985,3.973,40.394c0.866,1.7,1.83,3.36,2.882,4.975l1.509-0.739c0.269-0.13,0.533-0.27,0.798-0.417
		c0.382-0.192,0.757-0.395,1.128-0.607l0.228-0.133c0.481-0.268,0.955-0.545,1.416-0.835
		C365.879,412.898,366.539,412.483,367.187,412.048z"/>
	
		<rect x="355.617" y="360.932" transform="matrix(-0.9617 -0.274 0.274 -0.9617 634.9136 818.818)" style="fill:#8E4D85;" width="38.049" height="8.272"/>
	
		<rect x="359.295" y="348.011" transform="matrix(-0.9617 -0.274 0.274 -0.9617 645.6694 794.4783)" style="fill:#8E4D85;" width="38.049" height="8.272"/>
	
		<rect x="362.973" y="335.082" transform="matrix(-0.9617 -0.274 0.274 -0.9617 656.4265 770.1227)" style="fill:#8E4D85;" width="38.049" height="8.272"/>
	
		<rect x="366.661" y="322.159" transform="matrix(-0.9617 -0.274 0.274 -0.9617 667.2035 745.7831)" style="fill:#8E4D85;" width="38.049" height="8.272"/>
	
		<rect x="370.342" y="309.221" transform="matrix(-0.9617 -0.274 0.274 -0.9617 677.9699 721.4102)" style="fill:#8E4D85;" width="38.049" height="8.272"/>
</g>
<g>
</g>
<g>
</g>
<g>
</g>
<g>
</g>
<g>
</g>
<g>
</g>
<g>
</g>
<g>
</g>
<g>
</g>
<g>
</g>
<g>
</g>
<g>
</g>
<g>
</g>
<g>
</g>
<g>
</g>
</svg>
